<svg xmlns="http://www.w3.org/2000/svg" xmlns:xlink="http://www.w3.org/1999/xlink" width="500" viewBox="0 0 375 374.999991" height="500" preserveAspectRatio="xMidYMid meet"><defs><g></g><clipPath id="57829a8dd0"><path d="M 0.515625 0 L 374.765625 0 L 374.765625 374.25 L 0.515625 374.25 Z M 0.515625 0 " clip-rule="nonzero"></path></clipPath></defs><g clip-path="url(#57829a8dd0)"><path fill="#4caf50" d="M 374.765625 187.125 C 374.765625 159.90625 359.300781 136.152344 336.722656 124.15625 C 342.890625 100.664062 336.882812 74.542969 318.546875 56.210938 C 304.855469 42.515625 286.816406 35.703125 268.761719 35.703125 C 262.652344 35.703125 256.542969 36.480469 250.601562 38.042969 C 238.613281 15.464844 214.859375 0 187.640625 0 C 160.425781 0 136.667969 15.464844 124.675781 38.042969 C 118.722656 36.480469 112.625 35.703125 106.511719 35.703125 C 88.457031 35.703125 70.425781 42.523438 56.730469 56.210938 C 38.398438 74.542969 32.382812 100.65625 38.550781 124.15625 C 15.984375 136.152344 0.515625 159.90625 0.515625 187.125 C 0.515625 214.34375 15.984375 238.097656 38.558594 250.09375 C 32.394531 273.585938 38.398438 299.707031 56.738281 318.039062 C 70.425781 331.726562 88.464844 338.546875 106.523438 338.546875 C 112.632812 338.546875 118.742188 337.769531 124.683594 336.207031 C 136.667969 358.785156 160.425781 374.25 187.640625 374.25 C 214.859375 374.25 238.613281 358.785156 250.609375 336.207031 C 256.558594 337.769531 262.660156 338.546875 268.769531 338.546875 C 286.828125 338.546875 304.855469 331.726562 318.554688 318.039062 C 336.882812 299.707031 342.898438 273.59375 336.734375 250.09375 C 359.300781 238.097656 374.765625 214.34375 374.765625 187.125 Z M 374.765625 187.125 " fill-opacity="1" fill-rule="nonzero"></path></g><path fill="#ffffff" d="M 168.929688 269.730469 L 99.5625 200.355469 L 126.019531 173.894531 L 168.929688 216.792969 L 258.617188 127.113281 L 285.078125 153.574219 Z M 168.929688 269.730469 " fill-opacity="1" fill-rule="nonzero"></path><g fill="#4caf50" fill-opacity="1"><g transform="translate(105.757409, 247.420354)"><g><path d="M 2.109375 0.078125 C 1.804688 0.078125 1.566406 -0.00390625 1.390625 -0.171875 C 1.222656 -0.335938 1.140625 -0.5625 1.140625 -0.84375 C 1.140625 -1.113281 1.222656 -1.332031 1.390625 -1.5 C 1.566406 -1.675781 1.804688 -1.765625 2.109375 -1.765625 C 2.410156 -1.765625 2.644531 -1.679688 2.8125 -1.515625 C 2.988281 -1.347656 3.078125 -1.128906 3.078125 -0.859375 C 3.078125 -0.578125 2.988281 -0.347656 2.8125 -0.171875 C 2.632812 -0.00390625 2.398438 0.078125 2.109375 0.078125 Z M 2.109375 0.078125 "></path></g></g></g></svg>